<svg xmlns="http://www.w3.org/2000/svg" width="380" height="780" viewBox="0 0 380 780">
  <defs>
    <linearGradient id="bg-grad" x1="0" y1="0" x2="0" y2="1">
      <stop offset="0%" stop-color="#0F172A"/>
      <stop offset="100%" stop-color="#0a1020"/>
    </linearGradient>
    <clipPath id="screen">
      <rect x="20" y="20" width="340" height="740" rx="30"/>
    </clipPath>
  </defs>
  <!-- Phone body -->
  <rect width="380" height="780" rx="40" fill="#1a1a2e" stroke="#334155" stroke-width="2"/>
  <!-- Screen -->
  <g clip-path="url(#screen)">
    <rect x="20" y="20" width="340" height="740" fill="url(#bg-grad)"/>
    <!-- Status bar -->
    <text x="40" y="52" fill="#94A3B8" font-family="Inter,system-ui,sans-serif" font-size="13" font-weight="500">9:41</text>
    <circle cx="300" cy="47" r="5" fill="none" stroke="#94A3B8" stroke-width="1.5"/>
    <rect x="310" y="42" width="22" height="10" rx="2" fill="none" stroke="#94A3B8" stroke-width="1.5"/>
    <rect x="312" y="44" width="14" height="6" rx="1" fill="#10B981"/>
    <!-- Greeting -->
    <text x="40" y="100" fill="#F8FAFC" font-family="Inter,system-ui,sans-serif" font-size="24" font-weight="800">Good Morning</text>
    <text x="40" y="124" fill="#94A3B8" font-family="Inter,system-ui,sans-serif" font-size="14">Let's crush today's workout</text>
    <!-- Today's Workout Card -->
    <rect x="30" y="148" width="320" height="120" rx="16" fill="#1E293B" stroke="#334155" stroke-width="1"/>
    <text x="50" y="178" fill="#3B82F6" font-family="Inter,system-ui,sans-serif" font-size="12" font-weight="600" letter-spacing="1">TODAY'S WORKOUT</text>
    <text x="50" y="204" fill="#F8FAFC" font-family="Inter,system-ui,sans-serif" font-size="20" font-weight="700">Push Day — Chest &amp; Shoulders</text>
    <text x="50" y="228" fill="#94A3B8" font-family="Inter,system-ui,sans-serif" font-size="13">6 exercises · ~55 min</text>
    <!-- Progress bar -->
    <rect x="50" y="244" width="220" height="6" rx="3" fill="#334155"/>
    <rect x="50" y="244" width="132" height="6" rx="3" fill="#3B82F6"/>
    <text x="280" y="250" fill="#3B82F6" font-family="Inter,system-ui,sans-serif" font-size="12" font-weight="600">60%</text>
    <!-- Exercise List -->
    <text x="40" y="300" fill="#F8FAFC" font-family="Inter,system-ui,sans-serif" font-size="16" font-weight="700">Exercises</text>
    <!-- Exercise 1 - completed -->
    <rect x="30" y="316" width="320" height="64" rx="12" fill="#1E293B"/>
    <rect x="48" y="336" width="22" height="22" rx="6" fill="#10B981"/>
    <text x="57" y="352" fill="white" font-family="Inter,system-ui,sans-serif" font-size="14" font-weight="700">✓</text>
    <text x="82" y="344" fill="#F8FAFC" font-family="Inter,system-ui,sans-serif" font-size="14" font-weight="600">Bench Press</text>
    <text x="82" y="364" fill="#94A3B8" font-family="Inter,system-ui,sans-serif" font-size="12">4 × 8 · 80kg</text>
    <text x="300" y="352" fill="#10B981" font-family="Inter,system-ui,sans-serif" font-size="11" font-weight="600">DONE</text>
    <!-- Exercise 2 - completed -->
    <rect x="30" y="388" width="320" height="64" rx="12" fill="#1E293B"/>
    <rect x="48" y="408" width="22" height="22" rx="6" fill="#10B981"/>
    <text x="57" y="424" fill="white" font-family="Inter,system-ui,sans-serif" font-size="14" font-weight="700">✓</text>
    <text x="82" y="416" fill="#F8FAFC" font-family="Inter,system-ui,sans-serif" font-size="14" font-weight="600">Overhead Press</text>
    <text x="82" y="436" fill="#94A3B8" font-family="Inter,system-ui,sans-serif" font-size="12">3 × 10 · 45kg</text>
    <text x="300" y="424" fill="#10B981" font-family="Inter,system-ui,sans-serif" font-size="11" font-weight="600">DONE</text>
    <!-- Exercise 3 - in progress -->
    <rect x="30" y="460" width="320" height="64" rx="12" fill="#1E293B" stroke="#3B82F6" stroke-width="1.5"/>
    <rect x="48" y="480" width="22" height="22" rx="6" fill="#3B82F6/20" stroke="#3B82F6" stroke-width="1.5"/>
    <text x="82" y="488" fill="#F8FAFC" font-family="Inter,system-ui,sans-serif" font-size="14" font-weight="600">Incline Dumbbell Press</text>
    <text x="82" y="508" fill="#94A3B8" font-family="Inter,system-ui,sans-serif" font-size="12">3 × 12 · 28kg</text>
    <text x="286" y="496" fill="#3B82F6" font-family="Inter,system-ui,sans-serif" font-size="11" font-weight="600">SET 2/3</text>
    <!-- Exercise 4 - pending -->
    <rect x="30" y="532" width="320" height="64" rx="12" fill="#1E293B"/>
    <rect x="48" y="552" width="22" height="22" rx="6" fill="transparent" stroke="#334155" stroke-width="1.5"/>
    <text x="82" y="560" fill="#94A3B8" font-family="Inter,system-ui,sans-serif" font-size="14" font-weight="600">Lateral Raises</text>
    <text x="82" y="580" fill="#64748B" font-family="Inter,system-ui,sans-serif" font-size="12">4 × 15 · 12kg</text>
    <!-- Exercise 5 - pending -->
    <rect x="30" y="604" width="320" height="64" rx="12" fill="#1E293B"/>
    <rect x="48" y="624" width="22" height="22" rx="6" fill="transparent" stroke="#334155" stroke-width="1.5"/>
    <text x="82" y="632" fill="#94A3B8" font-family="Inter,system-ui,sans-serif" font-size="14" font-weight="600">Tricep Pushdowns</text>
    <text x="82" y="652" fill="#64748B" font-family="Inter,system-ui,sans-serif" font-size="12">3 × 12 · 25kg</text>
    <!-- Exercise 6 - pending -->
    <rect x="30" y="676" width="320" height="64" rx="12" fill="#1E293B"/>
    <rect x="48" y="696" width="22" height="22" rx="6" fill="transparent" stroke="#334155" stroke-width="1.5"/>
    <text x="82" y="704" fill="#94A3B8" font-family="Inter,system-ui,sans-serif" font-size="14" font-weight="600">Cable Flyes</text>
    <text x="82" y="724" fill="#64748B" font-family="Inter,system-ui,sans-serif" font-size="12">3 × 15 · 15kg</text>
  </g>
  <!-- Notch -->
  <rect x="130" y="24" width="120" height="28" rx="14" fill="#0a0a0a"/>
</svg>