<svg xmlns="http://www.w3.org/2000/svg" width="380" height="780" viewBox="0 0 380 780">
  <defs>
    <linearGradient id="bg-grad2" x1="0" y1="0" x2="0" y2="1">
      <stop offset="0%" stop-color="#0F172A"/>
      <stop offset="100%" stop-color="#0a1020"/>
    </linearGradient>
    <clipPath id="screen2">
      <rect x="20" y="20" width="340" height="740" rx="30"/>
    </clipPath>
  </defs>
  <rect width="380" height="780" rx="40" fill="#1a1a2e" stroke="#334155" stroke-width="2"/>
  <g clip-path="url(#screen2)">
    <rect x="20" y="20" width="340" height="740" fill="url(#bg-grad2)"/>
    <!-- Status bar -->
    <text x="40" y="52" fill="#94A3B8" font-family="Inter,system-ui,sans-serif" font-size="13" font-weight="500">9:41</text>
    <!-- Title -->
    <text x="40" y="100" fill="#F8FAFC" font-family="Inter,system-ui,sans-serif" font-size="24" font-weight="800">Analytics</text>
    <text x="40" y="122" fill="#94A3B8" font-family="Inter,system-ui,sans-serif" font-size="13">Last 8 weeks</text>
    <!-- Stat Cards Row -->
    <rect x="30" y="140" width="100" height="80" rx="12" fill="#1E293B"/>
    <text x="46" y="168" fill="#3B82F6" font-family="Inter,system-ui,sans-serif" font-size="22" font-weight="800">45.2K</text>
    <text x="46" y="186" fill="#94A3B8" font-family="Inter,system-ui,sans-serif" font-size="11">Total Volume</text>
    <text x="46" y="204" fill="#10B981" font-family="Inter,system-ui,sans-serif" font-size="10" font-weight="600">↑ 12%</text>
    <rect x="140" y="140" width="100" height="80" rx="12" fill="#1E293B"/>
    <text x="156" y="168" fill="#10B981" font-family="Inter,system-ui,sans-serif" font-size="22" font-weight="800">12</text>
    <text x="156" y="186" fill="#94A3B8" font-family="Inter,system-ui,sans-serif" font-size="11">New PRs</text>
    <text x="156" y="204" fill="#10B981" font-family="Inter,system-ui,sans-serif" font-size="10" font-weight="600">↑ 3 this week</text>
    <rect x="250" y="140" width="100" height="80" rx="12" fill="#1E293B"/>
    <text x="266" y="168" fill="#F59E0B" font-family="Inter,system-ui,sans-serif" font-size="22" font-weight="800">28</text>
    <text x="266" y="186" fill="#94A3B8" font-family="Inter,system-ui,sans-serif" font-size="11">Day Streak</text>
    <text x="266" y="204" fill="#F59E0B" font-family="Inter,system-ui,sans-serif" font-size="10" font-weight="600">🔥 Personal best</text>
    <!-- Strength Progress Chart -->
    <rect x="30" y="240" width="320" height="200" rx="16" fill="#1E293B"/>
    <text x="50" y="270" fill="#F8FAFC" font-family="Inter,system-ui,sans-serif" font-size="15" font-weight="700">Estimated 1RM Progress</text>
    <!-- Chart grid lines -->
    <line x1="50" y1="290" x2="330" y2="290" stroke="#334155" stroke-width="0.5"/>
    <line x1="50" y1="320" x2="330" y2="320" stroke="#334155" stroke-width="0.5"/>
    <line x1="50" y1="350" x2="330" y2="350" stroke="#334155" stroke-width="0.5"/>
    <line x1="50" y1="380" x2="330" y2="380" stroke="#334155" stroke-width="0.5"/>
    <line x1="50" y1="410" x2="330" y2="410" stroke="#334155" stroke-width="0.5"/>
    <!-- Y-axis labels -->
    <text x="40" y="294" fill="#64748B" font-family="Inter,system-ui,sans-serif" font-size="9" text-anchor="end">120</text>
    <text x="40" y="324" fill="#64748B" font-family="Inter,system-ui,sans-serif" font-size="9" text-anchor="end">100</text>
    <text x="40" y="354" fill="#64748B" font-family="Inter,system-ui,sans-serif" font-size="9" text-anchor="end">80</text>
    <text x="40" y="384" fill="#64748B" font-family="Inter,system-ui,sans-serif" font-size="9" text-anchor="end">60</text>
    <!-- Bench Press line (blue) -->
    <polyline points="60,390 100,380 140,370 180,355 220,345 260,335 300,320 330,305" fill="none" stroke="#3B82F6" stroke-width="2.5" stroke-linecap="round" stroke-linejoin="round"/>
    <!-- Squat line (green) -->
    <polyline points="60,370 100,358 140,350 180,340 220,328 260,318 300,305 330,290" fill="none" stroke="#10B981" stroke-width="2.5" stroke-linecap="round" stroke-linejoin="round"/>
    <!-- Data point dots -->
    <circle cx="330" cy="305" r="4" fill="#3B82F6"/>
    <circle cx="330" cy="290" r="4" fill="#10B981"/>
    <!-- Legend -->
    <circle cx="50" cy="425" r="4" fill="#3B82F6"/>
    <text x="60" y="429" fill="#94A3B8" font-family="Inter,system-ui,sans-serif" font-size="11">Bench Press</text>
    <circle cx="160" cy="425" r="4" fill="#10B981"/>
    <text x="170" y="429" fill="#94A3B8" font-family="Inter,system-ui,sans-serif" font-size="11">Squat</text>
    <!-- Weekly Volume Chart -->
    <rect x="30" y="458" width="320" height="180" rx="16" fill="#1E293B"/>
    <text x="50" y="488" fill="#F8FAFC" font-family="Inter,system-ui,sans-serif" font-size="15" font-weight="700">Weekly Volume (kg)</text>
    <!-- Bar chart -->
    <rect x="58" y="548" width="28" height="60" rx="4" fill="#3B82F6" opacity="0.4"/>
    <rect x="98" y="530" width="28" height="78" rx="4" fill="#3B82F6" opacity="0.5"/>
    <rect x="138" y="520" width="28" height="88" rx="4" fill="#3B82F6" opacity="0.6"/>
    <rect x="178" y="535" width="28" height="73" rx="4" fill="#3B82F6" opacity="0.5"/>
    <rect x="218" y="510" width="28" height="98" rx="4" fill="#3B82F6" opacity="0.7"/>
    <rect x="258" y="500" width="28" height="108" rx="4" fill="#3B82F6" opacity="0.8"/>
    <rect x="298" y="505" width="28" height="103" rx="4" fill="#3B82F6" opacity="0.9"/>
    <!-- X-axis labels -->
    <text x="72" y="622" fill="#64748B" font-family="Inter,system-ui,sans-serif" font-size="9" text-anchor="middle">W1</text>
    <text x="112" y="622" fill="#64748B" font-family="Inter,system-ui,sans-serif" font-size="9" text-anchor="middle">W2</text>
    <text x="152" y="622" fill="#64748B" font-family="Inter,system-ui,sans-serif" font-size="9" text-anchor="middle">W3</text>
    <text x="192" y="622" fill="#64748B" font-family="Inter,system-ui,sans-serif" font-size="9" text-anchor="middle">W4</text>
    <text x="232" y="622" fill="#64748B" font-family="Inter,system-ui,sans-serif" font-size="9" text-anchor="middle">W5</text>
    <text x="272" y="622" fill="#64748B" font-family="Inter,system-ui,sans-serif" font-size="9" text-anchor="middle">W6</text>
    <text x="312" y="622" fill="#64748B" font-family="Inter,system-ui,sans-serif" font-size="9" text-anchor="middle">W7</text>
    <!-- Recent PRs -->
    <rect x="30" y="656" width="320" height="90" rx="16" fill="#1E293B"/>
    <text x="50" y="686" fill="#F8FAFC" font-family="Inter,system-ui,sans-serif" font-size="15" font-weight="700">Recent PRs 🏆</text>
    <text x="50" y="710" fill="#94A3B8" font-family="Inter,system-ui,sans-serif" font-size="12">Bench Press — 95kg × 5</text>
    <text x="300" y="710" fill="#3B82F6" font-family="Inter,system-ui,sans-serif" font-size="11" font-weight="600">NEW</text>
    <text x="50" y="730" fill="#94A3B8" font-family="Inter,system-ui,sans-serif" font-size="12">Squat — 120kg × 3</text>
    <text x="300" y="730" fill="#3B82F6" font-family="Inter,system-ui,sans-serif" font-size="11" font-weight="600">NEW</text>
  </g>
  <rect x="130" y="24" width="120" height="28" rx="14" fill="#0a0a0a"/>
</svg>